# xmcd
#
# Track frame offsets:
# 150
# 17400
# 26968
# 42014
# 59564
# 71964
# 82990
# 96842
# 107288
# 120388
#
# Disc length: 1815 seconds
#
#
# Revision: 0
# Processed by: cddbd v1.5.2PL0 Copyright (c) Steve Scherf et al.
# Submitted via: FreeRIP 2.96 
#
DISCID=7907150a
DTITLE=julia juice and crazy lemons - tequila
DYEAR=2008
DGENRE=Country
TTITLE0=tequila
TTITLE1=hambone
TTITLE2=banks of the ohio
TTITLE3=mustang sally
TTITLE4=dont set me free
TTITLE5=dream baby
TTITLE6=ice cream man
TTITLE7=adam and eve
TTITLE8=puttin on the ritz
TTITLE9=the night they drove old dixie down
EXTD=russia,
EXTT0=
EXTT1=
EXTT2=
EXTT3=
EXTT4=
EXTT5=
EXTT6=
EXTT7=
EXTT8=
EXTT9=
PLAYORDER=
